<?xml version="1.0" encoding="UTF-8"?>
<!DOCTYPE svg PUBLIC "-//W3C//DTD SVG 1.1//EN" "http://www.w3.org/Graphics/SVG/1.1/DTD/svg11.dtd">
<!-- Creator: CorelDRAW -->
<svg xmlns="http://www.w3.org/2000/svg" xml:space="preserve" width="2in" height="2in" style="shape-rendering:geometricPrecision; text-rendering:geometricPrecision; image-rendering:optimizeQuality; fill-rule:evenodd; clip-rule:evenodd"
viewBox="0 0 2 2"
 xmlns:xlink="http://www.w3.org/1999/xlink">
 <defs>
  <style type="text/css">
   <![CDATA[
    .fil0 {fill:#191E55;fill-rule:nonzero}
   ]]>
  </style>
 </defs>
 <g id="Layer_x0020_1">
  <metadata id="CorelCorpID_0Corel-Layer"/>
  <g id="_188829856">
   <path id="_188829832" class="fil0" d="M0.261307 0.399819l0.178555 0c0.048315,0 0.0855472,0.00374016 0.111429,0.0113583 0.0260197,0.00761417 0.0455709,0.0185433 0.0585079,0.0327756 0.0130827,0.014378 0.0219961,0.0317677 0.0265906,0.0520394 0.0046063,0.0204173 0.00690945,0.0518976 0.00690945,0.0945945l0 0.059378c0,0.043563 -0.00446457,0.0753307 -0.013378,0.0951732 -0.00905906,0.0199803 -0.0255827,0.0352205 -0.0495945,0.0460039 -0.0240157,0.0106457 -0.0553543,0.0159646 -0.0940276,0.0159646l-0.0475748 0 0 0.274583 -0.177417 0 0 -0.68187zm0.177417 0.116591l0 0.173524c0.00501969,0.000283465 0.00933858,0.000429134 0.012937,0.000429134 0.0163819,0 0.0275984,-0.00402756 0.0339252,-0.0119331 0.00632677,-0.00804724 0.00948425,-0.0247244 0.00948425,-0.049878l0 -0.0560748c0,-0.0232913 -0.00359449,-0.0385315 -0.0109213,-0.0454331 -0.00733465,-0.00703543 -0.0224331,-0.0106339 -0.0454252,-0.0106339zm0.631264 0.0897047l-0.16461 0 0 -0.0504567c0,-0.0235787 -0.00216142,-0.0386772 -0.00632677,-0.0451457 -0.00417323,-0.00647244 -0.0112165,-0.00962598 -0.0211378,-0.00962598 -0.0106378,0 -0.0186811,0.00430709 -0.0241417,0.0130787 -0.00547244,0.00862992 -0.00820472,0.0218543 -0.00820472,0.0395433 0,0.0227047 0.00302756,0.0399567 0.00920079,0.0514567 0.00589764,0.0115039 0.0227165,0.0253071 0.0501732,0.0416969 0.0789291,0.0468661 0.128531,0.0852559 0.149079,0.115299 0.020563,0.0300472 0.0307717,0.0784882 0.0307717,0.145343 0,0.0485945 -0.00574803,0.0843858 -0.0171063,0.107386 -0.0113622,0.0230079 -0.0333543,0.0424134 -0.0658465,0.0579409 -0.0326299,0.0155276 -0.070437,0.0234331 -0.11372,0.0234331 -0.0474291,0 -0.0879764,-0.00905512 -0.121476,-0.0270276 -0.0336417,-0.0179764 -0.0556339,-0.0408268 -0.0659843,-0.0685748 -0.0103504,-0.0278819 -0.0155315,-0.0672795 -0.0155315,-0.118457l0 -0.0445709 0.164622 0 0 0.0829528c0,0.0255906 0.00229134,0.0419803 0.00689764,0.049311 0.00474803,0.00718898 0.0129331,0.0109291 0.0247205,0.0109291 0.0117874,0 0.0205591,-0.0046063 0.0263031,-0.0139449 0.00575984,-0.00920079 0.00862992,-0.0230079 0.00862992,-0.0412638 0,-0.0401102 -0.00546063,-0.0664173 -0.0163898,-0.0787835 -0.0112087,-0.0123583 -0.0389567,-0.0329173 -0.0829488,-0.0618228 -0.0441339,-0.0293189 -0.0733228,-0.0504606 -0.0876969,-0.0636811 -0.0142323,-0.0132283 -0.0261654,-0.0314843 -0.0355039,-0.0547717 -0.00948819,-0.0232913 -0.0140906,-0.0530512 -0.0140906,-0.0892795 0,-0.0521929 0.00661024,-0.0904291 0.0199764,-0.114583 0.0132362,-0.0241457 0.0347913,-0.0429843 0.0645512,-0.0566457 0.0297598,-0.0135079 0.0657008,-0.0204094 0.107827,-0.0204094 0.0461417,0 0.0853976,0.0074685 0.11774,0.0222835 0.0324921,0.0149488 0.0539055,0.0336417 0.0645551,0.0563504 0.0104921,0.0225748 0.0156693,0.0609646 0.0156693,0.115154l0 0.0268858zm0.24785 -0.206295l0 0.68187 -0.177413 0 0 -0.68187 0.177413 0zm0.428264 0l0 0.136425 -0.105228 0 0 0.545445 -0.177264 0 0 -0.545445 -0.104949 0 0 -0.136425 0.387441 0z"/>
   <path id="_188829928" class="fil0" d="M0.740028 1.22813c0.0022874,0.0022874 0.00340157,0.00416535 0.00340157,0.00563386 0,0.00187402 -0.00240551,0.00574409 -0.0072126,0.0117283 -0.0126102,0.0155394 -0.0311417,0.0354213 -0.0556575,0.0595827 -0.0234606,0.0231693 -0.0394094,0.0375394 -0.0477402,0.0431102 0.0103819,0.0147756 0.0208189,0.0296142 0.0312598,0.0445118 0.0158898,0.0224606 0.0296732,0.0375354 0.0412283,0.0452126 0.00504331,0.00340551 0.00955906,0.00516535 0.0135472,0.00516535 0.00404724,0 0.00874016,-0.00199606 0.0141339,-0.00586614 0.00111417,-0.000822835 0.00222835,-0.00117323 0.00322835,-0.00117323 0.00240157,0 0.00363386,0.00117323 0.00363386,0.00357874 0,0.00140551 -0.000527559,0.00281496 -0.00158268,0.00427953 -0.00340157,0.0053937 -0.0109094,0.0132559 -0.0224646,0.0235787 -0.0026378,0.00240157 -0.00522047,0.0035748 -0.00774016,0.0035748 -0.00298819,0 -0.0063937,-0.00152362 -0.0101457,-0.00462992 -0.0140748,-0.0112047 -0.0299094,-0.0291496 -0.0474449,-0.0537795 -0.0182992,-0.025748 -0.0310276,-0.0417598 -0.038122,-0.0479173 -0.0036378,0.0014685 -0.00656693,0.00222835 -0.00874016,0.00222835 -0.00404331,0 -0.00627165,-0.00299213 -0.00674016,-0.00897244 -0.00011811,-0.00181496 -0.000181102,-0.00334252 -0.000181102,-0.00463386 0,-0.00481102 0.00129528,-0.00832677 0.00387402,-0.0105551 0.00257874,-0.00222835 0.00785827,-0.00422047 0.0157165,-0.0059252 0.00287402,-0.000586614 0.00504331,0.000177165 0.00657087,0.00223228 0.0134882,-0.0104409 0.0287953,-0.0244606 0.0458583,-0.0421102 0.0168346,-0.0172441 0.0270394,-0.0294449 0.0305591,-0.0364213 -0.00721654,-0.00422047 -0.0107913,-0.0076811 -0.0107913,-0.010437 0,-0.00216929 0.00205118,-0.00375591 0.00615748,-0.00463386 0.00574803,-0.00404724 0.0125472,-0.0105 0.0204685,-0.0194724 0.00333858,-0.00375197 0.00685827,-0.00562992 0.0106732,-0.00562992 0.00433858,0 0.00909055,0.00257874 0.014252,0.00774016zm-0.101228 0.0137244c-0.0144252,0.0258661 -0.0282638,0.0562992 -0.0415787,0.0912559 -0.011437,0.0298504 -0.0204685,0.059 -0.0271535,0.0872677 -0.00445669,0.019 -0.00645276,0.0308504 -0.00598031,0.0355394 0.000700787,0.00187402 0.000996063,0.00351575 0.000996063,0.00498425 0,0.00240551 -0.000940945,0.0036378 -0.00287402,0.0036378 -0.00240551,0 -0.00633465,-0.00205118 -0.0117323,-0.00621654 -0.00592126,-0.00446063 -0.00891339,-0.00809449 -0.00891339,-0.0109685 0,-0.00181496 0.000527559,-0.00451575 0.00152756,-0.00809449 0.00944094,-0.0330748 0.0211102,-0.0681457 0.0350709,-0.105154 0.00914567,-0.0228701 0.0191181,-0.0478543 0.0299055,-0.0748898 -0.0327835,0.0080315 -0.0561811,0.0176496 -0.0702559,0.0288543 -0.00516142,0.00398425 -0.00774409,0.00785827 -0.00774409,0.0114921 0,0.00251969 0.00111811,0.00926772 0.00340551,0.0201142 0.000818898,0.00358268 -0.000472441,0.00534252 -0.00375591,0.00534252 -0.0022874,0 -0.00404724,-0.00111811 -0.00533858,-0.0032874 -0.00386614,-0.00615748 -0.00791339,-0.0151299 -0.0120197,-0.0269803 -0.000822835,-0.00263386 -0.00123228,-0.00503937 -0.00123228,-0.0072126 0,-0.00855906 0.00668504,-0.0155394 0.0199409,-0.020937 0.00468898,-0.00193307 0.0284449,-0.0099685 0.0711378,-0.0240433 0.0100866,-0.00334252 0.0169488,-0.00727165 0.0206457,-0.0118504 0.0026378,-0.00322047 0.0049252,-0.00480709 0.00685827,-0.00480709 0.00182283,0 0.0041063,0.000996063 0.0068622,0.00305118 0.00322835,0.0022874 0.00480709,0.00427953 0.00480709,0.00586614 0,0.00146457 -0.000874016,0.00381102 -0.00257874,0.00703543zm0.234177 0.103102c-0.0105512,0.0292087 -0.0178268,0.0537205 -0.021815,0.0735433 0.00170079,-0.00164173 0.00398819,-0.00410236 0.00680709,-0.00738976 0.00281102,-0.00334252 0.00451181,-0.00527953 0.00521654,-0.00586614 0.00158268,-0.00205118 0.00333858,-0.0031063 0.00515748,-0.0031063 0.00170079,0 0.00257874,0.00088189 0.00257874,0.00257874 0,0.00105906 -0.000468504,0.00223228 -0.00140551,0.0036378 -0.0107283,0.0158937 -0.0178858,0.0320236 -0.0214606,0.0482677 -0.001,0.00457087 -0.00258268,0.00685827 -0.00463386,0.00685827 -0.00193701,0 -0.00557087,-0.00181496 -0.0107913,-0.00545276 -0.0031063,-0.00211024 -0.00486614,-0.00381102 -0.00533858,-0.00515748 -0.000582677,-0.00129528 -0.000582677,-0.00381496 0,-0.00756693 0.00481102,-0.0290906 0.0107913,-0.053252 0.0180039,-0.0725472 -0.0099685,0.016189 -0.0235157,0.0340748 -0.0406969,0.0536024 -0.0150157,0.017126 -0.0258071,0.0279764 -0.0324921,0.0326654 -0.00481102,0.00334646 -0.00844882,0.00498819 -0.0109646,0.00498819 -0.00205512,0 -0.00522441,-0.00164173 -0.00944488,-0.00498819 -0.00609843,-0.00363386 -0.00914961,-0.00867717 -0.00914961,-0.0151299 0,-0.00123228 0.00011811,-0.00269685 0.000350394,-0.00427953 0.00205512,-0.0169488 0.00950394,-0.0366575 0.0223465,-0.0591772 0.0128425,-0.0225197 0.027563,-0.0415236 0.0441614,-0.0569449 0.0053937,-0.00504331 0.0102047,-0.00750787 0.0144291,-0.00738976 0.00410236,0.00023622 0.0119606,0.00562992 0.0235748,0.0163031 0.000996063,0.000937008 0.00152362,0.00187795 0.00152362,0.00293307 0,0.00181496 -0.00123228,0.00275591 -0.0036378,0.00275591 -0.000877953,0 -0.00175591,-0.000177165 -0.00257874,-0.000527559 -0.00809449,-0.00346063 -0.0146614,-0.00334252 -0.0195906,0.000350394 -0.0107323,0.0078622 -0.0226378,0.0218189 -0.0357126,0.0417559 -0.0151299,0.022874 -0.0242205,0.0435197 -0.0273307,0.0618189 -0.00011811,0.000818898 -0.000173228,0.00158268 -0.000173228,0.00222441 0,0.00287402 0.00116929,0.00434252 0.00345669,0.00434252 0.00387402,0 0.00850394,-0.00270079 0.0139016,-0.00809449 0.0128425,-0.0124921 0.0265669,-0.0282087 0.0412283,-0.0470906 0.0150118,-0.0195906 0.0246299,-0.0343701 0.0289134,-0.0443425 0.00304724,-0.00733071 0.00504331,-0.0124882 0.00598031,-0.0154213 0.0014685,-0.00516142 0.00311024,-0.00774409 0.00480709,-0.00774409 0.00170472,0 0.00575197,0.00235039 0.0120197,0.00703937 0.00264173,0.00193701 0.0041063,0.00369685 0.00428346,0.00533858 0.00023622,0.00135039 -0.00023622,0.00375197 -0.00152362,0.0072126zm0.147614 0.053252c-0.0068622,0.010437 -0.0158346,0.0255709 -0.0267992,0.0453346 -0.00205512,0.00516142 -0.00411024,0.0103189 -0.00604331,0.0154803 -0.00158661,0.00357874 -0.00369291,0.00533858 -0.00633465,0.00533858 -0.00205118,0 -0.00510236,-0.00088189 -0.00914567,-0.00257874 -0.00446063,-0.0018189 -0.00668898,-0.0036378 -0.00668898,-0.00551575 0,-0.00076378 0.00076378,-0.00257874 0.00222835,-0.00533465 0.00744882,-0.0150748 0.0141339,-0.0339567 0.0199409,-0.0564803 0.00633465,-0.023752 0.00897244,-0.041811 0.00809449,-0.0543071 -0.00023622,-0.00504331 -0.00140945,-0.00756299 -0.00346063,-0.00756299 -0.0014685,0 -0.00369685,0.00140551 -0.00668504,0.00427953 -0.0288543,0.0282087 -0.0538425,0.0658622 -0.0748937,0.113071 -0.00264173,0.00580709 -0.00574803,0.00874016 -0.00932677,0.00874016 -0.00252362,0 -0.00668504,-0.00140945 -0.0124882,-0.00427953 -0.00235039,-0.00105906 -0.00351969,-0.00199606 -0.0036378,-0.00293307 0,-0.000468504 0.000645669,-0.00205512 0.00187795,-0.00481102 0.00668504,-0.0145433 0.013252,-0.0329567 0.0197638,-0.0553031 0.00697638,-0.0241614 0.0109685,-0.0430472 0.0118465,-0.0565354 0.000232283,-0.0041063 0.000114173,-0.00621654 -0.000354331,-0.00621654 -0.000114173,0 -0.00170079,0.00158268 -0.00480709,0.00469291 -0.00305118,0.00304724 -0.00738976,0.00709449 -0.0128465,0.0120236 -0.00105512,0.000996063 -0.00216929,0.00152362 -0.00345669,0.00152362 -0.00158661,0 -0.00240551,-0.000645669 -0.00240551,-0.00187795 0,-0.000937008 0.000586614,-0.00193307 0.00170079,-0.00311024 0.0049252,-0.00627165 0.011437,-0.0141299 0.0194134,-0.0235157 0.00175984,-0.00193701 0.00351969,-0.00292913 0.00533465,-0.00292913 0.00275591,0 0.00516142,0.00198819 0.0072126,0.00598031 0.00932677,0.00275591 0.0136654,0.00703543 0.0130787,0.0127244 -0.0012874,0.0126102 -0.00774016,0.0353661 -0.0194094,0.0682087 0.0076811,-0.0147835 0.0188268,-0.0312598 0.0334843,-0.0495591 0.0146614,-0.0182362 0.0255709,-0.0290315 0.0326693,-0.032374 0.00351575,-0.00158268 0.00603937,-0.00240157 0.00756299,-0.00240157 0.0014685,0 0.00387402,0.00123228 0.0072126,0.00375197 0.00950394,0.00334252 0.0141929,0.00885827 0.0140748,0.0165394 0,0.00797638 -0.00193307,0.020878 -0.0058622,0.0386496 -0.00305118,0.0146575 -0.0059252,0.0260354 -0.00855906,0.034189 0.00333858,-0.00427953 0.00756299,-0.00973228 0.0127244,-0.0165394 0.000877953,-0.00111417 0.00181496,-0.00169685 0.00275591,-0.00169685 0.00170079,0 0.00257874,0.00111024 0.00257874,0.00328346 0,0.000700787 -0.00011811,0.00134646 -0.000350394,0.00205118zm0.149142 -0.044689c-0.00135039,0.0193543 -0.00645276,0.0401732 -0.0153071,0.0624016 -0.0082126,0.0207008 -0.0163622,0.0348937 -0.0243976,0.0424016 -0.0045748,0.00427953 -0.00920866,0.00638976 -0.0138976,0.00638976 -0.00527953,0 -0.0140197,-0.00422047 -0.0262756,-0.0127244 -0.00240551,-0.00158268 -0.0036378,-0.00328346 -0.0036378,-0.00498425 0,-0.00217323 0.00158661,-0.0032874 0.00463386,-0.0032874 0.00129134,0 0.0031063,0.000413386 0.00551181,0.00123228 0.00240551,0.000822835 0.00434252,0.00117323 0.00586614,0.00117323 0.00833071,0 0.0158346,-0.00527559 0.0225197,-0.0159528 0.0055748,-0.00914567 0.0109094,-0.0214606 0.0159528,-0.0369488 0.00609843,-0.0192362 0.00867717,-0.0357717 0.00791732,-0.0496693 -0.000350394,-0.00662598 -0.00257874,-0.00997244 -0.00668504,-0.00997244 -0.00369685,0 -0.00815354,0.00252362 -0.0134331,0.00756693 -0.037122,0.0355394 -0.0632205,0.0779409 -0.0783504,0.127323 -0.00856299,0.0280906 -0.014311,0.0540709 -0.0171811,0.078 -0.00011811,0.000822835 -0.00164173,0.0207047 -0.00463386,0.0596417 -0.000472441,0.00563386 -0.0018189,0.00844882 -0.0041063,0.00844882 -0.00240551,0 -0.00674409,-0.00281496 -0.0129016,-0.00844882 -0.00446063,-0.00410236 -0.00621654,-0.00914567 -0.00516142,-0.015126 0.00504331,-0.0570669 0.0188268,-0.120583 0.0414055,-0.190547 0.0177677,-0.0547165 0.0318465,-0.0902598 0.0422835,-0.106504 0.00615748,-0.0095 0.0116693,-0.0141929 0.0164803,-0.0139567 0.00480709,0.00011811 0.0139567,0.00445669 0.0275079,0.0129016 0.00181496,0.00117323 0.00275197,0.00234646 0.00275197,0.00363386 0,0.00170472 -0.00140551,0.00258268 -0.00416535,0.00258268 -0.000641732,0 -0.00181496,-0.000177165 -0.00339764,-0.000468504 -0.00164173,-0.000291339 -0.0028189,-0.000409449 -0.0036378,-0.000409449 -0.0072126,0 -0.0147205,0.00609843 -0.0225197,0.0183543 -0.0045748,0.00703543 -0.0103228,0.0187677 -0.0173031,0.035248 -0.00703543,0.0164764 -0.0120787,0.0300866 -0.0151299,0.0407008 0.0168346,-0.0274488 0.0364213,-0.0510827 0.0587638,-0.0707874 0.00340551,-0.00293307 0.00651181,-0.00445669 0.00926772,-0.00445669 0.00123228,0 0.00439764,0.00170079 0.00944488,0.00516142 0.0155984,0.00551181 0.0228701,0.0158937 0.021815,0.0310827zm0.144331 -0.0187087c-0.015189,0.0282677 -0.026626,0.0615197 -0.0341929,0.0996417 0.00322835,-0.00562992 0.00709449,-0.0127874 0.0117323,-0.0214646 0.000523622,-0.00158268 0.00146457,-0.00240551 0.00269685,-0.00240551 0.00175984,0 0.00257874,0.00111417 0.00257874,0.00328346 0,0.000645669 -0.000114173,0.00140945 -0.000468504,0.00222835 -0.00733071,0.0167165 -0.0121417,0.0296181 -0.0144252,0.0386496 -0.00140945,0.00574803 -0.00322441,0.00856299 -0.00551181,0.00856299 -0.00229134,0 -0.00674803,-0.00222835 -0.0134331,-0.00668504 -0.00351575,-0.00252362 -0.00474803,-0.00698031 -0.00357874,-0.0133701 0.00481102,-0.0249882 0.0105591,-0.046685 0.0173583,-0.0651575 -0.0221063,0.0360079 -0.0406969,0.0625157 -0.0557126,0.0795827 -0.00328346,0.00375197 -0.00692126,0.00562992 -0.0107913,0.00562992 -0.00322441,0 -0.00697638,-0.00129134 -0.0113189,-0.00392913 -0.00791732,-0.00135039 -0.0119055,-0.00551575 -0.0119055,-0.012374 0,-0.00123228 0.00011811,-0.00264173 0.000350394,-0.0041063 0.00287795,-0.0327835 0.00885827,-0.0599961 0.0178898,-0.0816378 -0.00193701,0.0018189 -0.00486614,0.00451969 -0.00874016,0.00809449 -0.00152362,0.00123228 -0.0026378,0.00158268 -0.00346063,0.000996063 -0.000937008,-0.000641732 -0.000759843,-0.00199213 0.000527559,-0.00392913 0.00616142,-0.0090315 0.00985433,-0.0150118 0.0109685,-0.0178898 0.00357874,-0.00890945 0.00727165,-0.0158307 0.0112008,-0.0207598 0.00205512,-0.00251969 0.00422441,-0.00381102 0.00651181,-0.00381102 0.0031063,0 0.00762205,0.00187795 0.0135472,0.00551575 0.00164173,0.00105118 0.00240551,0.00205118 0.00240551,0.0031063 0,0 -0.00123228,0.00187402 -0.00375591,0.00568898 -0.00574409,0.0086811 -0.0117874,0.0240433 -0.0182362,0.0460394 -0.00698031,0.0238071 -0.0105,0.0432205 -0.0106181,0.0582362 0,0.0049252 0.001,0.00738583 0.00311024,0.00738583 0.0018189,0 0.00481102,-0.00211024 0.00891339,-0.00638976 0.00879921,-0.00938189 0.0215827,-0.0270945 0.0382992,-0.053252 0.0147795,-0.0229882 0.0236929,-0.0380039 0.0267992,-0.0449803 0.00516142,-0.0117323 0.00932283,-0.0185945 0.0125512,-0.0206457 0.00205118,-0.00135039 0.00387008,-0.00205118 0.00551181,-0.00205118 0.00158661,0 0.00469291,0.00117323 0.00926378,0.0035748 0.00457874,0.00246457 0.00686614,0.00422441 0.00686614,0.00533858 0,0.000350394 -0.000413386,0.000818898 -0.00117717,0.00140551 -0.000818898,0.000586614 -0.00140551,0.00117323 -0.00175591,0.00187795zm0.117236 -0.00463386c0,0.0150157 -0.00205118,0.0293228 -0.00604331,0.0429291 -0.00122835,0.00416535 -0.00298819,0.00622047 -0.00515748,0.00622047 -0.00158268,0 -0.00516142,-0.00229134 -0.0106142,-0.00686614 -0.00275591,-0.0022874 -0.00346457,-0.00557087 -0.00211417,-0.00979134 0.00322835,-0.0104409 0.00481102,-0.0188268 0.00481102,-0.0251024 0,-0.00216929 -0.000409449,-0.00328346 -0.00135039,-0.00328346 -0.00134646,0 -0.00363386,0.00205118 -0.00668504,0.00621654 -0.0238701,0.0310236 -0.0416378,0.0658583 -0.0534291,0.104449 -0.00381102,0.0122598 -0.00703543,0.0183583 -0.00961811,0.0183583 -0.00105512,0 -0.00557087,-0.00199606 -0.0136063,-0.00598031 -0.00387008,-0.00193701 -0.00521654,-0.00575197 -0.00392913,-0.011378 0.0090315,-0.0395906 0.0187677,-0.0730748 0.0292087,-0.100287 -0.00850787,0.00891339 -0.0139016,0.0150118 -0.016185,0.0183583 -0.00088189,0.00134646 -0.00216929,0.00205118 -0.00375591,0.00205118 -0.00193307,0 -0.00293307,-0.000822835 -0.00293307,-0.00258268 0,-0.000996063 0.000472441,-0.00216929 0.00140945,-0.00339764 0.00557087,-0.00680709 0.0130748,-0.0170669 0.0224606,-0.0309685 0.00287402,-0.00504331 0.00574803,-0.00756693 0.00862205,-0.00756693 0.00205118,0 0.00621654,0.00164173 0.0125512,0.00481102 0.00351969,0.00187795 0.00410236,0.00433858 0.00169685,0.00738976 -0.00251969,0.00334252 -0.00726772,0.0150709 -0.014248,0.035248 -0.00662992,0.0195866 -0.0112598,0.0349528 -0.0137835,0.0460354 0.0156024,-0.0347205 0.033311,-0.0653307 0.0531378,-0.0918976 0.00375197,-0.00504331 0.00679921,-0.00756693 0.00908661,-0.00756693 0.00205512,0 0.00487008,0.00135039 0.00844488,0.00410236 0.00481102,0.000590551 0.00780315,0.00135039 0.00909055,0.00223228 0.00193701,0.00140551 0.00293307,0.00416142 0.00293307,0.00826772z"/>
   <path id="_188829808" class="fil0" d="M0.253898 1.5357l0.671976 0 0 0.0217835 -0.671976 0 0 -0.0217835zm0.866571 0l0.568059 0 0 0.0217835 -0.568059 0 0 -0.0217835zm-0.866571 -0.365768l1.43463 0 0 0.0217835 -1.43463 0 0 -0.0217835z"/>
  </g>
 </g>
</svg>
